<?xml version="1.0" encoding="UTF-8" standalone="no"?>
<!DOCTYPE svg PUBLIC "-//W3C//DTD SVG 1.1//EN"
 "http://www.w3.org/Graphics/SVG/1.1/DTD/svg11.dtd">
<!-- Generated by graphviz version 2.43.0 (0)
 -->
<!-- Title: %3 Pages: 1 -->
<svg width="1325pt" height="238pt"
 viewBox="0.00 0.00 1324.50 237.74" xmlns="http://www.w3.org/2000/svg" xmlns:xlink="http://www.w3.org/1999/xlink">
<g id="graph0" class="graph" transform="scale(1 1) rotate(0) translate(36 201.74)">
<title>%3</title>
<polygon fill="dimgray" stroke="transparent" points="-36,36 -36,-201.74 1288.5,-201.74 1288.5,36 -36,36"/>
<text text-anchor="middle" x="626.25" y="-150.54" font-family="Helvetica,sans-Serif" font-size="14.00">Sweep&#39;s Plan &amp; Progress</text>
<!-- start -->
<g id="node1" class="node">
<title>start</title>
</g>
<!-- 904e82ff&#45;53ea&#45;4141&#45;80cd&#45;356d149c907c -->
<g id="node3" class="node">
<title>904e82ff&#45;53ea&#45;4141&#45;80cd&#45;356d149c907c</title>
<ellipse fill="#0ee832" stroke="black" cx="250" cy="-99.87" rx="146.24" ry="26.74"/>
<text text-anchor="middle" x="250" y="-103.67" font-family="Helvetica,sans-Serif" font-size="14.00">✓ Modify</text>
<text text-anchor="middle" x="250" y="-88.67" font-family="Helvetica,sans-Serif" font-size="14.00">ensemble/src/connection.rs</text>
</g>
<!-- start&#45;&gt;904e82ff&#45;53ea&#45;4141&#45;80cd&#45;356d149c907c -->
<g id="edge6" class="edge">
<title>start&#45;&gt;904e82ff&#45;53ea&#45;4141&#45;80cd&#45;356d149c907c</title>
<path fill="none" stroke="black" d="M52.57,-99.87C55.72,-99.87 71.66,-99.87 93.22,-99.87"/>
<polygon fill="black" stroke="black" points="93.51,-103.37 103.51,-99.87 93.51,-96.37 93.51,-103.37"/>
<text text-anchor="middle" x="78.06" y="-106.67" font-family="Helvetica,sans-Serif" font-size="14.00">Start</text>
</g>
<!-- end -->
<g id="node2" class="node">
<title>end</title>
</g>
<!-- accdc2f4&#45;f856&#45;4d22&#45;afab&#45;d6ed4d8d5d97 -->
<g id="node4" class="node">
<title>accdc2f4&#45;f856&#45;4d22&#45;afab&#45;d6ed4d8d5d97</title>
<ellipse fill="white" stroke="black" cx="588" cy="-99.87" rx="104.8" ry="26.74"/>
<text text-anchor="middle" x="588" y="-103.67" font-family="Helvetica,sans-Serif" font-size="14.00">▶ Modify</text>
<text text-anchor="middle" x="588" y="-88.67" font-family="Helvetica,sans-Serif" font-size="14.00">ensemble/src/lib.rs</text>
</g>
<!-- 904e82ff&#45;53ea&#45;4141&#45;80cd&#45;356d149c907c&#45;&gt;accdc2f4&#45;f856&#45;4d22&#45;afab&#45;d6ed4d8d5d97 -->
<g id="edge2" class="edge">
<title>904e82ff&#45;53ea&#45;4141&#45;80cd&#45;356d149c907c&#45;&gt;accdc2f4&#45;f856&#45;4d22&#45;afab&#45;d6ed4d8d5d97</title>
<path fill="none" stroke="black" d="M396.55,-99.87C422.08,-99.87 447.61,-99.87 473.14,-99.87"/>
<polygon fill="black" stroke="black" points="473.3,-103.37 483.3,-99.87 473.3,-96.37 473.3,-103.37"/>
</g>
<!-- c6c6b79b&#45;6910&#45;4853&#45;b19b&#45;b7bcb9b2d144 -->
<g id="node6" class="node">
<title>c6c6b79b&#45;6910&#45;4853&#45;b19b&#45;b7bcb9b2d144</title>
<polygon fill="#0ee832" stroke="black" points="400,-36 0,-36 0,0 400,0 400,-36"/>
<text text-anchor="middle" x="200" y="-14.3" font-family="Helvetica,sans-Serif" font-size="14.00">✓ Run GitHub Actions for `ensemble/src/connection.rs`</text>
</g>
<!-- 904e82ff&#45;53ea&#45;4141&#45;80cd&#45;356d149c907c&#45;&gt;c6c6b79b&#45;6910&#45;4853&#45;b19b&#45;b7bcb9b2d144 -->
<g id="edge1" class="edge">
<title>904e82ff&#45;53ea&#45;4141&#45;80cd&#45;356d149c907c&#45;&gt;c6c6b79b&#45;6910&#45;4853&#45;b19b&#45;b7bcb9b2d144</title>
<path fill="none" stroke="black" stroke-dasharray="5,2" d="M233.9,-73.16C228.25,-64.13 221.9,-53.98 216.24,-44.94"/>
<polygon fill="black" stroke="black" points="219.13,-42.96 210.85,-36.34 213.19,-46.67 219.13,-42.96"/>
</g>
<!-- e66cf1e7&#45;0791&#45;45c4&#45;8b4a&#45;664e8c45a1ca -->
<g id="node5" class="node">
<title>e66cf1e7&#45;0791&#45;45c4&#45;8b4a&#45;664e8c45a1ca</title>
<ellipse fill="white" stroke="black" cx="972" cy="-99.87" rx="202.47" ry="26.74"/>
<text text-anchor="middle" x="972" y="-103.67" font-family="Helvetica,sans-Serif" font-size="14.00">▶ Create</text>
<text text-anchor="middle" x="972" y="-88.67" font-family="Helvetica,sans-Serif" font-size="14.00">ensemble/src/tests/connection_tests.rs</text>
</g>
<!-- accdc2f4&#45;f856&#45;4d22&#45;afab&#45;d6ed4d8d5d97&#45;&gt;e66cf1e7&#45;0791&#45;45c4&#45;8b4a&#45;664e8c45a1ca -->
<g id="edge4" class="edge">
<title>accdc2f4&#45;f856&#45;4d22&#45;afab&#45;d6ed4d8d5d97&#45;&gt;e66cf1e7&#45;0791&#45;45c4&#45;8b4a&#45;664e8c45a1ca</title>
<path fill="none" stroke="black" d="M693,-99.87C715.13,-99.87 737.26,-99.87 759.39,-99.87"/>
<polygon fill="black" stroke="black" points="759.56,-103.37 769.56,-99.87 759.56,-96.37 759.56,-103.37"/>
</g>
<!-- 3a369678&#45;9d83&#45;4862&#45;97bc&#45;18dd1c172c6d -->
<g id="node7" class="node">
<title>3a369678&#45;9d83&#45;4862&#45;97bc&#45;18dd1c172c6d</title>
<polygon fill="white" stroke="black" points="757.5,-36 418.5,-36 418.5,0 757.5,0 757.5,-36"/>
<text text-anchor="middle" x="588" y="-14.3" font-family="Helvetica,sans-Serif" font-size="14.00">▶ Run GitHub Actions for `ensemble/src/lib.rs`</text>
</g>
<!-- accdc2f4&#45;f856&#45;4d22&#45;afab&#45;d6ed4d8d5d97&#45;&gt;3a369678&#45;9d83&#45;4862&#45;97bc&#45;18dd1c172c6d -->
<g id="edge3" class="edge">
<title>accdc2f4&#45;f856&#45;4d22&#45;afab&#45;d6ed4d8d5d97&#45;&gt;3a369678&#45;9d83&#45;4862&#45;97bc&#45;18dd1c172c6d</title>
<path fill="none" stroke="black" stroke-dasharray="5,2" d="M588,-72.72C588,-64.27 588,-54.89 588,-46.36"/>
<polygon fill="black" stroke="black" points="591.5,-46.15 588,-36.15 584.5,-46.15 591.5,-46.15"/>
</g>
<!-- e66cf1e7&#45;0791&#45;45c4&#45;8b4a&#45;664e8c45a1ca&#45;&gt;end -->
<g id="edge7" class="edge">
<title>e66cf1e7&#45;0791&#45;45c4&#45;8b4a&#45;664e8c45a1ca&#45;&gt;end</title>
<path fill="none" stroke="black" d="M1174.3,-99.87C1194.26,-99.87 1210.89,-99.87 1221.09,-99.87"/>
<polygon fill="black" stroke="black" points="1221.38,-103.37 1231.38,-99.87 1221.38,-96.37 1221.38,-103.37"/>
<text text-anchor="middle" x="1202.87" y="-106.67" font-family="Helvetica,sans-Serif" font-size="14.00">Finish</text>
</g>
<!-- 39a546ed&#45;194a&#45;4456&#45;b0d0&#45;5532439fcdf8 -->
<g id="node8" class="node">
<title>39a546ed&#45;194a&#45;4456&#45;b0d0&#45;5532439fcdf8</title>
<polygon fill="white" stroke="black" points="1252.5,-36 775.5,-36 775.5,0 1252.5,0 1252.5,-36"/>
<text text-anchor="middle" x="1014" y="-14.3" font-family="Helvetica,sans-Serif" font-size="14.00">▶ Run GitHub Actions for `ensemble/src/tests/connection_tests.rs`</text>
</g>
<!-- e66cf1e7&#45;0791&#45;45c4&#45;8b4a&#45;664e8c45a1ca&#45;&gt;39a546ed&#45;194a&#45;4456&#45;b0d0&#45;5532439fcdf8 -->
<g id="edge5" class="edge">
<title>e66cf1e7&#45;0791&#45;45c4&#45;8b4a&#45;664e8c45a1ca&#45;&gt;39a546ed&#45;194a&#45;4456&#45;b0d0&#45;5532439fcdf8</title>
<path fill="none" stroke="black" stroke-dasharray="5,2" d="M985.75,-72.72C990.39,-63.9 995.57,-54.05 1000.21,-45.23"/>
<polygon fill="black" stroke="black" points="1003.43,-46.63 1004.98,-36.15 997.23,-43.37 1003.43,-46.63"/>
</g>
</g>
</svg>
