<?xml version="1.0" encoding="UTF-8" standalone="no"?>
<!DOCTYPE svg PUBLIC "-//W3C//DTD SVG 1.1//EN"
 "http://www.w3.org/Graphics/SVG/1.1/DTD/svg11.dtd">
<!-- Generated by graphviz version 2.43.0 (0)
 -->
<!-- Title: %3 Pages: 1 -->
<svg width="1323pt" height="238pt"
 viewBox="0.00 0.00 1322.50 237.74" xmlns="http://www.w3.org/2000/svg" xmlns:xlink="http://www.w3.org/1999/xlink">
<g id="graph0" class="graph" transform="scale(1 1) rotate(0) translate(36 201.74)">
<title>%3</title>
<polygon fill="dimgray" stroke="transparent" points="-36,36 -36,-201.74 1286.5,-201.74 1286.5,36 -36,36"/>
<text text-anchor="middle" x="625.25" y="-150.54" font-family="Helvetica,sans-Serif" font-size="14.00">Sweep&#39;s Plan &amp; Progress</text>
<!-- start -->
<g id="node1" class="node">
<title>start</title>
</g>
<!-- 904e82ff&#45;53ea&#45;4141&#45;80cd&#45;356d149c907c -->
<g id="node3" class="node">
<title>904e82ff&#45;53ea&#45;4141&#45;80cd&#45;356d149c907c</title>
<ellipse fill="yellow" stroke="black" cx="249" cy="-99.87" rx="146.24" ry="26.74"/>
<text text-anchor="middle" x="249" y="-103.67" font-family="Helvetica,sans-Serif" font-size="14.00">⋯ Modify</text>
<text text-anchor="middle" x="249" y="-88.67" font-family="Helvetica,sans-Serif" font-size="14.00">ensemble/src/connection.rs</text>
</g>
<!-- start&#45;&gt;904e82ff&#45;53ea&#45;4141&#45;80cd&#45;356d149c907c -->
<g id="edge6" class="edge">
<title>start&#45;&gt;904e82ff&#45;53ea&#45;4141&#45;80cd&#45;356d149c907c</title>
<path fill="none" stroke="black" d="M51.57,-99.87C54.72,-99.87 70.66,-99.87 92.22,-99.87"/>
<polygon fill="black" stroke="black" points="92.51,-103.37 102.51,-99.87 92.51,-96.37 92.51,-103.37"/>
<text text-anchor="middle" x="77.06" y="-106.67" font-family="Helvetica,sans-Serif" font-size="14.00">Start</text>
</g>
<!-- end -->
<g id="node2" class="node">
<title>end</title>
</g>
<!-- accdc2f4&#45;f856&#45;4d22&#45;afab&#45;d6ed4d8d5d97 -->
<g id="node4" class="node">
<title>accdc2f4&#45;f856&#45;4d22&#45;afab&#45;d6ed4d8d5d97</title>
<ellipse fill="white" stroke="black" cx="586" cy="-99.87" rx="104.8" ry="26.74"/>
<text text-anchor="middle" x="586" y="-103.67" font-family="Helvetica,sans-Serif" font-size="14.00">▶ Modify</text>
<text text-anchor="middle" x="586" y="-88.67" font-family="Helvetica,sans-Serif" font-size="14.00">ensemble/src/lib.rs</text>
</g>
<!-- 904e82ff&#45;53ea&#45;4141&#45;80cd&#45;356d149c907c&#45;&gt;accdc2f4&#45;f856&#45;4d22&#45;afab&#45;d6ed4d8d5d97 -->
<g id="edge2" class="edge">
<title>904e82ff&#45;53ea&#45;4141&#45;80cd&#45;356d149c907c&#45;&gt;accdc2f4&#45;f856&#45;4d22&#45;afab&#45;d6ed4d8d5d97</title>
<path fill="none" stroke="black" d="M395.45,-99.87C420.64,-99.87 445.83,-99.87 471.02,-99.87"/>
<polygon fill="black" stroke="black" points="471.05,-103.37 481.05,-99.87 471.05,-96.37 471.05,-103.37"/>
</g>
<!-- c6c6b79b&#45;6910&#45;4853&#45;b19b&#45;b7bcb9b2d144 -->
<g id="node6" class="node">
<title>c6c6b79b&#45;6910&#45;4853&#45;b19b&#45;b7bcb9b2d144</title>
<polygon fill="white" stroke="black" points="398,-36 0,-36 0,0 398,0 398,-36"/>
<text text-anchor="middle" x="199" y="-14.3" font-family="Helvetica,sans-Serif" font-size="14.00">▶ Run GitHub Actions for `ensemble/src/connection.rs`</text>
</g>
<!-- 904e82ff&#45;53ea&#45;4141&#45;80cd&#45;356d149c907c&#45;&gt;c6c6b79b&#45;6910&#45;4853&#45;b19b&#45;b7bcb9b2d144 -->
<g id="edge1" class="edge">
<title>904e82ff&#45;53ea&#45;4141&#45;80cd&#45;356d149c907c&#45;&gt;c6c6b79b&#45;6910&#45;4853&#45;b19b&#45;b7bcb9b2d144</title>
<path fill="none" stroke="black" stroke-dasharray="5,2" d="M232.9,-73.16C227.25,-64.13 220.9,-53.98 215.24,-44.94"/>
<polygon fill="black" stroke="black" points="218.13,-42.96 209.85,-36.34 212.19,-46.67 218.13,-42.96"/>
</g>
<!-- e66cf1e7&#45;0791&#45;45c4&#45;8b4a&#45;664e8c45a1ca -->
<g id="node5" class="node">
<title>e66cf1e7&#45;0791&#45;45c4&#45;8b4a&#45;664e8c45a1ca</title>
<ellipse fill="white" stroke="black" cx="970" cy="-99.87" rx="202.47" ry="26.74"/>
<text text-anchor="middle" x="970" y="-103.67" font-family="Helvetica,sans-Serif" font-size="14.00">▶ Create</text>
<text text-anchor="middle" x="970" y="-88.67" font-family="Helvetica,sans-Serif" font-size="14.00">ensemble/src/tests/connection_tests.rs</text>
</g>
<!-- accdc2f4&#45;f856&#45;4d22&#45;afab&#45;d6ed4d8d5d97&#45;&gt;e66cf1e7&#45;0791&#45;45c4&#45;8b4a&#45;664e8c45a1ca -->
<g id="edge4" class="edge">
<title>accdc2f4&#45;f856&#45;4d22&#45;afab&#45;d6ed4d8d5d97&#45;&gt;e66cf1e7&#45;0791&#45;45c4&#45;8b4a&#45;664e8c45a1ca</title>
<path fill="none" stroke="black" d="M691,-99.87C713.13,-99.87 735.26,-99.87 757.39,-99.87"/>
<polygon fill="black" stroke="black" points="757.56,-103.37 767.56,-99.87 757.56,-96.37 757.56,-103.37"/>
</g>
<!-- 3a369678&#45;9d83&#45;4862&#45;97bc&#45;18dd1c172c6d -->
<g id="node7" class="node">
<title>3a369678&#45;9d83&#45;4862&#45;97bc&#45;18dd1c172c6d</title>
<polygon fill="white" stroke="black" points="755.5,-36 416.5,-36 416.5,0 755.5,0 755.5,-36"/>
<text text-anchor="middle" x="586" y="-14.3" font-family="Helvetica,sans-Serif" font-size="14.00">▶ Run GitHub Actions for `ensemble/src/lib.rs`</text>
</g>
<!-- accdc2f4&#45;f856&#45;4d22&#45;afab&#45;d6ed4d8d5d97&#45;&gt;3a369678&#45;9d83&#45;4862&#45;97bc&#45;18dd1c172c6d -->
<g id="edge3" class="edge">
<title>accdc2f4&#45;f856&#45;4d22&#45;afab&#45;d6ed4d8d5d97&#45;&gt;3a369678&#45;9d83&#45;4862&#45;97bc&#45;18dd1c172c6d</title>
<path fill="none" stroke="black" stroke-dasharray="5,2" d="M586,-72.72C586,-64.27 586,-54.89 586,-46.36"/>
<polygon fill="black" stroke="black" points="589.5,-46.15 586,-36.15 582.5,-46.15 589.5,-46.15"/>
</g>
<!-- e66cf1e7&#45;0791&#45;45c4&#45;8b4a&#45;664e8c45a1ca&#45;&gt;end -->
<g id="edge7" class="edge">
<title>e66cf1e7&#45;0791&#45;45c4&#45;8b4a&#45;664e8c45a1ca&#45;&gt;end</title>
<path fill="none" stroke="black" d="M1172.3,-99.87C1192.26,-99.87 1208.89,-99.87 1219.09,-99.87"/>
<polygon fill="black" stroke="black" points="1219.38,-103.37 1229.38,-99.87 1219.38,-96.37 1219.38,-103.37"/>
<text text-anchor="middle" x="1200.87" y="-106.67" font-family="Helvetica,sans-Serif" font-size="14.00">Finish</text>
</g>
<!-- 39a546ed&#45;194a&#45;4456&#45;b0d0&#45;5532439fcdf8 -->
<g id="node8" class="node">
<title>39a546ed&#45;194a&#45;4456&#45;b0d0&#45;5532439fcdf8</title>
<polygon fill="white" stroke="black" points="1250.5,-36 773.5,-36 773.5,0 1250.5,0 1250.5,-36"/>
<text text-anchor="middle" x="1012" y="-14.3" font-family="Helvetica,sans-Serif" font-size="14.00">▶ Run GitHub Actions for `ensemble/src/tests/connection_tests.rs`</text>
</g>
<!-- e66cf1e7&#45;0791&#45;45c4&#45;8b4a&#45;664e8c45a1ca&#45;&gt;39a546ed&#45;194a&#45;4456&#45;b0d0&#45;5532439fcdf8 -->
<g id="edge5" class="edge">
<title>e66cf1e7&#45;0791&#45;45c4&#45;8b4a&#45;664e8c45a1ca&#45;&gt;39a546ed&#45;194a&#45;4456&#45;b0d0&#45;5532439fcdf8</title>
<path fill="none" stroke="black" stroke-dasharray="5,2" d="M983.75,-72.72C988.39,-63.9 993.57,-54.05 998.21,-45.23"/>
<polygon fill="black" stroke="black" points="1001.43,-46.63 1002.98,-36.15 995.23,-43.37 1001.43,-46.63"/>
</g>
</g>
</svg>
